<svg version="1.1" id="Layer_1" xmlns="http://www.w3.org/2000/svg" xmlns:xlink="http://www.w3.org/1999/xlink" x="0px" y="0px"
	 width="100%" viewBox="0 0 2048 2048" enable-background="new 0 0 2048 2048" xml:space="preserve">
<path fill="#FFFFFF" opacity="1.000000" stroke="none" 
	d="
M1192.000000,2049.000000 
	C794.666687,2049.000000 397.833344,2049.000000 1.000000,2049.000000 
	C1.000000,1366.333374 1.000000,683.666687 1.000000,1.000000 
	C683.666687,1.000000 1366.333374,1.000000 2049.000000,1.000000 
	C2049.000000,683.666687 2049.000000,1366.333374 2049.000000,2049.000000 
	C1763.500000,2049.000000 1478.000000,2049.000000 1192.000000,2049.000000 
M1412.520996,1957.009644 
	C1437.838867,1945.247070 1463.602051,1934.348633 1488.394775,1921.567627 
	C1581.443726,1873.600586 1664.868530,1812.331543 1738.900879,1738.273193 
	C1813.765137,1663.382446 1875.473999,1578.883545 1923.749390,1484.671021 
	C1985.931519,1363.318359 2021.737305,1234.478271 2031.713013,1098.525391 
	C2035.718628,1043.934326 2035.189087,989.330383 2030.297974,934.771973 
	C2024.784546,873.272583 2013.856201,812.792480 1997.243408,753.319336 
	C1962.319458,628.292114 1905.140259,514.371521 1826.279419,411.358002 
	C1770.987549,339.131775 1706.945923,275.609619 1634.467163,220.618332 
	C1564.095947,167.225952 1488.049683,123.712891 1406.263794,90.391167 
	C1303.543091,48.540154 1196.766602,24.364996 1085.994873,17.787764 
	C1004.451904,12.946034 923.492371,17.627153 843.149536,32.250896 
	C743.290466,50.426888 648.328674,83.024483 558.355774,130.038315 
	C461.927094,180.425507 375.835907,244.736801 300.132721,322.839691 
	C227.417877,397.859497 167.648178,482.129272 121.062241,575.691406 
	C61.966339,694.378296 27.899300,819.938232 18.249886,952.100159 
	C14.263813,1006.694946 14.855655,1061.295654 19.742624,1115.852173 
	C24.504358,1169.010620 33.268600,1221.483521 46.425877,1273.186401 
	C80.474777,1406.984985 139.385483,1528.868774 223.483444,1638.321899 
	C321.350037,1765.694946 442.680481,1864.607422 587.362549,1934.516357 
	C708.292053,1992.948364 836.043884,2025.382568 970.109314,2032.665527 
	C1067.513306,2037.956787 1163.770996,2029.444458 1258.720703,2006.925537 
	C1311.077271,1994.508301 1362.166382,1978.117432 1412.520996,1957.009644 
z"/>
<path fill="#030303" opacity="1.000000" stroke="none" 
	d="
M1412.155029,1957.126465 
	C1362.166382,1978.117432 1311.077271,1994.508301 1258.720703,2006.925537 
	C1163.770996,2029.444458 1067.513306,2037.956787 970.109314,2032.665527 
	C836.043884,2025.382568 708.292053,1992.948364 587.362549,1934.516357 
	C442.680481,1864.607422 321.350037,1765.694946 223.483444,1638.321899 
	C139.385483,1528.868774 80.474777,1406.984985 46.425877,1273.186401 
	C33.268600,1221.483521 24.504358,1169.010620 19.742624,1115.852173 
	C14.855655,1061.295654 14.263813,1006.694946 18.249886,952.100159 
	C27.899300,819.938232 61.966339,694.378296 121.062241,575.691406 
	C167.648178,482.129272 227.417877,397.859497 300.132721,322.839691 
	C375.835907,244.736801 461.927094,180.425507 558.355774,130.038315 
	C648.328674,83.024483 743.290466,50.426888 843.149536,32.250896 
	C923.492371,17.627153 1004.451904,12.946034 1085.994873,17.787764 
	C1196.766602,24.364996 1303.543091,48.540154 1406.263794,90.391167 
	C1488.049683,123.712891 1564.095947,167.225952 1634.467163,220.618332 
	C1706.945923,275.609619 1770.987549,339.131775 1826.279419,411.358002 
	C1905.140259,514.371521 1962.319458,628.292114 1997.243408,753.319336 
	C2013.856201,812.792480 2024.784546,873.272583 2030.297974,934.771973 
	C2035.189087,989.330383 2035.718628,1043.934326 2031.713013,1098.525391 
	C2021.737305,1234.478271 1985.931519,1363.318359 1923.749390,1484.671021 
	C1875.473999,1578.883545 1813.765137,1663.382446 1738.900879,1738.273193 
	C1664.868530,1812.331543 1581.443726,1873.600586 1488.394775,1921.567627 
	C1463.602051,1934.348633 1437.838867,1945.247070 1412.155029,1957.126465 
M1622.843628,1227.221924 
	C1627.280762,1225.864380 1631.738037,1224.569336 1636.151611,1223.139160 
	C1664.021973,1214.108887 1688.657471,1199.390503 1710.529785,1180.080688 
	C1736.665283,1157.007202 1756.360352,1129.308105 1769.683350,1096.994751 
	C1779.559814,1073.040527 1784.902710,1048.166260 1785.973755,1022.384766 
	C1787.011230,997.414429 1783.565308,972.980408 1776.499512,948.979004 
	C1770.257446,927.775635 1760.964844,908.029297 1748.786377,889.699646 
	C1731.779663,864.103210 1710.314575,842.999939 1684.376221,826.296021 
	C1656.371704,808.261353 1625.813965,797.297363 1592.997192,793.221863 
	C1559.613892,789.075989 1526.570068,791.557007 1494.314209,801.993774 
	C1470.081055,809.834656 1447.860352,821.366211 1427.686035,836.910583 
	C1400.960693,857.502441 1380.148071,882.954773 1364.904907,912.999329 
	C1353.539795,935.400146 1346.085449,959.075684 1342.946045,983.975708 
	C1339.993530,1007.393982 1339.621216,1030.920532 1345.097290,1054.024414 
	C1348.686279,1069.166138 1352.462524,1084.482300 1358.355225,1098.815552 
	C1372.119873,1132.295898 1393.257812,1160.744995 1421.180664,1183.991089 
	C1444.697998,1203.569458 1470.895630,1218.300781 1500.532471,1226.133057 
	C1514.127808,1229.725708 1528.111938,1232.136353 1542.062256,1234.035522 
	C1569.140259,1237.721436 1595.812744,1234.502075 1622.843628,1227.221924 
M860.327026,1212.781494 
	C887.498230,1197.341187 904.565308,1173.625122 914.772217,1144.780029 
	C921.078491,1126.958374 923.268738,1108.319824 923.239136,1089.338013 
	C923.091431,994.526917 923.172180,899.715454 923.172668,804.904114 
	C923.172668,803.259216 923.172791,801.614380 923.172791,799.788452 
	C902.285583,799.788452 881.742554,799.788452 860.996704,799.788452 
	C860.996704,801.979004 860.996643,803.803772 860.996643,805.628540 
	C860.996643,899.106873 860.992065,992.585144 861.001587,1086.063477 
	C861.003052,1099.959839 859.328064,1113.628784 854.748413,1126.774780 
	C849.960571,1140.517944 842.313171,1152.469360 830.437744,1161.192261 
	C808.923157,1176.995972 785.052002,1181.821289 759.125977,1175.357178 
	C737.668884,1170.007446 720.945374,1158.210693 710.262634,1138.430542 
	C701.724121,1122.620850 699.179565,1105.507690 699.167908,1087.894409 
	C699.105347,993.749573 699.138245,899.604736 699.138123,805.459900 
	C699.138123,803.641541 699.138123,801.823181 699.138123,799.779541 
	C678.150208,799.779541 657.441284,799.779541 636.469727,799.779541 
	C636.469727,801.974731 636.469727,803.786865 636.469727,805.599060 
	C636.469727,898.577515 636.418640,991.556030 636.545288,1084.534302 
	C636.558594,1094.323975 637.365295,1104.135132 638.249939,1113.895996 
	C639.733643,1130.267944 644.420837,1145.865967 651.560181,1160.586304 
	C668.940491,1196.422607 698.539307,1217.584961 735.788208,1228.913452 
	C757.044739,1235.377808 778.775146,1237.100342 800.928162,1233.949097 
	C821.978027,1230.954712 841.499451,1224.012573 860.327026,1212.781494 
M1152.857788,1234.888184 
	C1182.601196,1237.302612 1210.406250,1231.720459 1235.361694,1214.676636 
	C1252.979126,1202.644531 1265.559937,1186.362671 1273.600708,1166.814575 
	C1281.084839,1148.619385 1283.880737,1129.281616 1283.914551,1109.718262 
	C1284.091064,1007.581299 1284.018555,905.443970 1284.025269,803.306763 
	C1284.025391,802.174622 1283.923340,801.042542 1283.863037,799.787903 
	C1262.914673,799.787903 1242.170532,799.787903 1221.238403,799.787903 
	C1221.238403,801.802246 1221.238403,803.459167 1221.238281,805.116028 
	C1221.235474,904.087585 1221.263062,1003.059082 1221.175049,1102.030640 
	C1221.167603,1110.338867 1220.873901,1118.706909 1219.852051,1126.940308 
	C1218.214722,1140.130371 1214.087402,1152.389160 1204.762695,1162.508789 
	C1183.262085,1185.842041 1129.974243,1186.067139 1113.648682,1145.205444 
	C1112.385254,1142.042969 1110.796387,1141.464966 1107.826294,1141.482300 
	C1089.166382,1141.591064 1070.505737,1141.537598 1051.845215,1141.555542 
	C1050.714600,1141.556519 1049.584106,1141.708984 1047.263672,1141.877319 
	C1049.855957,1149.653076 1051.861450,1157.158936 1054.815674,1164.270508 
	C1067.194214,1194.068481 1089.038086,1214.464722 1118.864868,1225.970581 
	C1129.451050,1230.054199 1140.914062,1231.864502 1152.857788,1234.888184 
M474.888367,1211.495605 
	C474.888367,1197.714600 474.888367,1183.933472 474.888367,1169.608521 
	C425.172821,1169.608521 375.973816,1169.608521 326.322449,1169.608521 
	C326.322449,1046.000488 326.322449,922.941833 326.322449,799.736084 
	C305.284668,799.736084 284.705872,799.736084 264.097382,799.736084 
	C264.097382,942.246033 264.097382,1084.451538 264.097382,1226.684204 
	C334.444824,1226.684204 404.497986,1226.684204 474.888367,1226.684204 
	C474.888367,1221.763550 474.888367,1217.128540 474.888367,1211.495605 
M518.001465,1065.500000 
	C518.001465,1119.245605 518.001465,1172.991333 518.001465,1226.573975 
	C539.371643,1226.573975 560.082520,1226.573975 580.647827,1226.573975 
	C580.647827,1084.076050 580.647827,942.000977 580.647827,799.748962 
	C559.666016,799.748962 538.930115,799.748962 518.001465,799.748962 
	C518.001465,888.218445 518.001465,976.359253 518.001465,1065.500000 
M1117.160400,1029.667114 
	C1128.851807,1010.803711 1130.047974,991.257141 1120.166992,971.422607 
	C1110.786377,952.592529 1095.144165,941.727722 1074.309937,940.056641 
	C1032.161377,936.675964 1002.923096,977.705261 1014.866455,1015.076111 
	C1022.664368,1039.475952 1045.467773,1057.028931 1070.966187,1056.054932 
	C1090.433716,1055.311279 1105.876587,1046.567139 1117.160400,1029.667114 
M730.399841,1406.499756 
	C730.399841,1416.442871 730.399841,1426.385986 730.399841,1436.725464 
	C732.967224,1436.600708 734.851379,1436.509155 737.136353,1436.398071 
	C737.136353,1408.023071 737.136353,1380.226929 737.136353,1352.430664 
	C737.400940,1352.383545 737.665527,1352.336304 737.930115,1352.289185 
	C749.493774,1381.006348 761.057495,1409.723511 773.112671,1439.661011 
	C785.356201,1409.237671 797.079346,1380.107544 808.802429,1350.977417 
	C809.220093,1351.083252 809.637756,1351.189209 810.055420,1351.295166 
	C810.055420,1379.637573 810.055420,1407.979980 810.055420,1436.419189 
	C813.632690,1436.419189 816.724304,1436.419189 819.946533,1436.419189 
	C819.946533,1403.144653 819.946533,1370.134521 819.946533,1336.906982 
	C817.436646,1336.906982 815.217712,1337.235474 813.136780,1336.839111 
	C808.707092,1335.995483 807.032593,1338.498535 805.665710,1342.016479 
	C797.921753,1361.947021 790.110962,1381.851685 782.282654,1401.749268 
	C780.390747,1406.558105 778.346497,1411.307007 776.372192,1416.083496 
	C775.958984,1416.062378 775.545776,1416.041260 775.132507,1416.020264 
	C764.506348,1389.678711 753.880188,1363.337280 743.356995,1337.250977 
	C738.837646,1337.250977 734.767090,1337.250977 730.399841,1337.250977 
	C730.399841,1360.231812 730.399841,1382.865723 730.399841,1406.499756 
M1197.554810,1352.505249 
	C1197.554810,1347.395752 1197.554810,1342.286255 1197.554810,1337.241455 
	C1195.059570,1337.241455 1193.162476,1337.241455 1190.737915,1337.241455 
	C1190.737915,1362.404785 1190.737915,1387.237549 1190.737915,1413.197632 
	C1172.400146,1389.181396 1154.614380,1366.287598 1137.367188,1342.995117 
	C1133.466797,1337.727783 1129.591797,1335.553467 1123.449219,1337.399902 
	C1123.449219,1370.454956 1123.449219,1403.481445 1123.449219,1436.769531 
	C1125.608032,1436.616943 1127.348755,1436.494019 1129.755859,1436.323853 
	C1129.755859,1408.476562 1129.755859,1381.043579 1129.755859,1352.175903 
	C1152.711304,1381.955200 1174.702881,1410.484131 1197.554810,1440.129150 
	C1197.554810,1410.330444 1197.554810,1381.916748 1197.554810,1352.505249 
M1243.181641,1412.282959 
	C1245.043091,1415.210938 1246.769897,1418.235352 1248.787231,1421.051636 
	C1265.892700,1444.932251 1303.861816,1445.255005 1320.870483,1421.382324 
	C1335.612671,1400.690674 1336.450439,1378.802734 1324.122925,1356.734253 
	C1310.058228,1331.555664 1275.261108,1326.596436 1254.214355,1346.193359 
	C1237.777588,1361.497925 1232.485596,1388.646729 1243.181641,1412.282959 
M1018.221924,1410.627197 
	C1018.996399,1406.341309 1021.304810,1404.948242 1025.828735,1405.169312 
	C1035.136230,1405.624390 1044.498779,1405.643066 1053.804688,1405.170898 
	C1059.004517,1404.907227 1061.006348,1407.177856 1062.497070,1411.613647 
	C1064.918945,1418.820679 1067.773193,1425.889648 1070.674683,1432.922119 
	C1071.273193,1434.372681 1072.724854,1436.211670 1074.053467,1436.467407 
	C1076.881226,1437.011719 1079.886353,1436.633789 1083.366699,1436.633789 
	C1069.627075,1402.099121 1056.168457,1368.270996 1042.377563,1333.607300 
	C1028.405029,1368.324341 1014.807190,1402.110352 1001.149048,1436.046265 
	C1005.523254,1437.369629 1008.011536,1436.932251 1009.526123,1432.114258 
	C1011.755493,1425.022339 1015.055420,1418.266724 1018.221924,1410.627197 
M922.334045,1345.573853 
	C922.334045,1375.819946 922.334045,1406.066040 922.334045,1436.337646 
	C938.596863,1436.337646 954.162842,1436.337646 969.787476,1436.337646 
	C969.787476,1434.533813 969.787476,1433.094360 969.787476,1431.073975 
	C957.529297,1431.073975 945.471924,1431.073975 933.092712,1431.073975 
	C933.092712,1399.393311 933.092712,1368.292969 933.092712,1337.280029 
	C929.346863,1337.280029 925.956299,1337.280029 922.330566,1337.280029 
	C922.330566,1339.973755 922.330566,1342.287476 922.334045,1345.573853 
M875.949707,1398.500000 
	C875.949707,1378.095337 875.949707,1357.690674 875.949707,1337.267944 
	C872.069885,1337.267944 868.699463,1337.267944 865.344116,1337.267944 
	C865.344116,1370.477417 865.344116,1403.334839 865.344116,1436.275391 
	C868.982422,1436.275391 872.364197,1436.275391 875.949707,1436.275391 
	C875.949707,1423.770142 875.949707,1411.635132 875.949707,1398.500000 
z"/>
<path fill="#FDFDFD" opacity="1.000000" stroke="none" 
	d="
M1622.479248,1227.405273 
	C1595.812744,1234.502075 1569.140259,1237.721436 1542.062256,1234.035522 
	C1528.111938,1232.136353 1514.127808,1229.725708 1500.532471,1226.133057 
	C1470.895630,1218.300781 1444.697998,1203.569458 1421.180664,1183.991089 
	C1393.257812,1160.744995 1372.119873,1132.295898 1358.355225,1098.815552 
	C1352.462524,1084.482300 1348.686279,1069.166138 1345.097290,1054.024414 
	C1339.621216,1030.920532 1339.993530,1007.393982 1342.946045,983.975708 
	C1346.085449,959.075684 1353.539795,935.400146 1364.904907,912.999329 
	C1380.148071,882.954773 1400.960693,857.502441 1427.686035,836.910583 
	C1447.860352,821.366211 1470.081055,809.834656 1494.314209,801.993774 
	C1526.570068,791.557007 1559.613892,789.075989 1592.997192,793.221863 
	C1625.813965,797.297363 1656.371704,808.261353 1684.376221,826.296021 
	C1710.314575,842.999939 1731.779663,864.103210 1748.786377,889.699646 
	C1760.964844,908.029297 1770.257446,927.775635 1776.499512,948.979004 
	C1783.565308,972.980408 1787.011230,997.414429 1785.973755,1022.384766 
	C1784.902710,1048.166260 1779.559814,1073.040527 1769.683350,1096.994751 
	C1756.360352,1129.308105 1736.665283,1157.007202 1710.529785,1180.080688 
	C1688.657471,1199.390503 1664.021973,1214.108887 1636.151611,1223.139160 
	C1631.738037,1224.569336 1627.280762,1225.864380 1622.479248,1227.405273 
M1721.963013,1037.388184 
	C1727.391113,991.862488 1716.975830,950.356201 1690.447021,912.913879 
	C1665.865967,878.220642 1632.383179,857.495422 1590.619873,850.817200 
	C1561.253052,846.121277 1532.239746,848.474243 1504.227295,859.403320 
	C1479.546997,869.032349 1459.151123,884.472229 1442.554932,904.945068 
	C1429.284424,921.315491 1419.473022,939.618164 1412.777832,959.648743 
	C1406.229980,979.238586 1402.616333,999.211426 1403.593872,1019.912476 
	C1404.835938,1046.210938 1411.967896,1070.881470 1424.110229,1094.177246 
	C1434.594360,1114.292114 1448.391846,1131.839478 1466.288452,1145.716309 
	C1501.350708,1172.903442 1541.402344,1181.901489 1585.041138,1176.693237 
	C1617.321045,1172.840698 1645.660400,1160.304688 1669.502197,1138.073242 
	C1698.598999,1110.942017 1715.046997,1077.114258 1721.963013,1037.388184 
z"/>
<path fill="#FDFDFD" opacity="1.000000" stroke="none" 
	d="
M860.020996,1212.982666 
	C841.499451,1224.012573 821.978027,1230.954712 800.928162,1233.949097 
	C778.775146,1237.100342 757.044739,1235.377808 735.788208,1228.913452 
	C698.539307,1217.584961 668.940491,1196.422607 651.560181,1160.586304 
	C644.420837,1145.865967 639.733643,1130.267944 638.249939,1113.895996 
	C637.365295,1104.135132 636.558594,1094.323975 636.545288,1084.534302 
	C636.418640,991.556030 636.469727,898.577515 636.469727,805.599060 
	C636.469727,803.786865 636.469727,801.974731 636.469727,799.779541 
	C657.441284,799.779541 678.150208,799.779541 699.138123,799.779541 
	C699.138123,801.823181 699.138123,803.641541 699.138123,805.459900 
	C699.138245,899.604736 699.105347,993.749573 699.167908,1087.894409 
	C699.179565,1105.507690 701.724121,1122.620850 710.262634,1138.430542 
	C720.945374,1158.210693 737.668884,1170.007446 759.125977,1175.357178 
	C785.052002,1181.821289 808.923157,1176.995972 830.437744,1161.192261 
	C842.313171,1152.469360 849.960571,1140.517944 854.748413,1126.774780 
	C859.328064,1113.628784 861.003052,1099.959839 861.001587,1086.063477 
	C860.992065,992.585144 860.996643,899.106873 860.996643,805.628540 
	C860.996643,803.803772 860.996704,801.979004 860.996704,799.788452 
	C881.742554,799.788452 902.285583,799.788452 923.172791,799.788452 
	C923.172791,801.614380 923.172668,803.259216 923.172668,804.904114 
	C923.172180,899.715454 923.091431,994.526917 923.239136,1089.338013 
	C923.268738,1108.319824 921.078491,1126.958374 914.772217,1144.780029 
	C904.565308,1173.625122 887.498230,1197.341187 860.020996,1212.982666 
z"/>
<path fill="#FDFDFD" opacity="1.000000" stroke="none" 
	d="
M1152.417236,1234.800293 
	C1140.914062,1231.864502 1129.451050,1230.054199 1118.864868,1225.970581 
	C1089.038086,1214.464722 1067.194214,1194.068481 1054.815674,1164.270508 
	C1051.861450,1157.158936 1049.855957,1149.653076 1047.263672,1141.877319 
	C1049.584106,1141.708984 1050.714600,1141.556519 1051.845215,1141.555542 
	C1070.505737,1141.537598 1089.166382,1141.591064 1107.826294,1141.482300 
	C1110.796387,1141.464966 1112.385254,1142.042969 1113.648682,1145.205444 
	C1129.974243,1186.067139 1183.262085,1185.842041 1204.762695,1162.508789 
	C1214.087402,1152.389160 1218.214722,1140.130371 1219.852051,1126.940308 
	C1220.873901,1118.706909 1221.167603,1110.338867 1221.175049,1102.030640 
	C1221.263062,1003.059082 1221.235474,904.087585 1221.238281,805.116028 
	C1221.238403,803.459167 1221.238403,801.802246 1221.238403,799.787903 
	C1242.170532,799.787903 1262.914673,799.787903 1283.863037,799.787903 
	C1283.923340,801.042542 1284.025391,802.174622 1284.025269,803.306763 
	C1284.018555,905.443970 1284.091064,1007.581299 1283.914551,1109.718262 
	C1283.880737,1129.281616 1281.084839,1148.619385 1273.600708,1166.814575 
	C1265.559937,1186.362671 1252.979126,1202.644531 1235.361694,1214.676636 
	C1210.406250,1231.720459 1182.601196,1237.302612 1152.417236,1234.800293 
z"/>
<path fill="#FEFEFE" opacity="1.000000" stroke="none" 
	d="
M474.888367,1211.994629 
	C474.888367,1217.128540 474.888367,1221.763550 474.888367,1226.684204 
	C404.497986,1226.684204 334.444824,1226.684204 264.097382,1226.684204 
	C264.097382,1084.451538 264.097382,942.246033 264.097382,799.736084 
	C284.705872,799.736084 305.284668,799.736084 326.322449,799.736084 
	C326.322449,922.941833 326.322449,1046.000488 326.322449,1169.608521 
	C375.973816,1169.608521 425.172821,1169.608521 474.888367,1169.608521 
	C474.888367,1183.933472 474.888367,1197.714600 474.888367,1211.994629 
z"/>
<path fill="#FEFEFE" opacity="1.000000" stroke="none" 
	d="
M518.001465,1065.000000 
	C518.001465,976.359253 518.001465,888.218445 518.001465,799.748962 
	C538.930115,799.748962 559.666016,799.748962 580.647827,799.748962 
	C580.647827,942.000977 580.647827,1084.076050 580.647827,1226.573975 
	C560.082520,1226.573975 539.371643,1226.573975 518.001465,1226.573975 
	C518.001465,1172.991333 518.001465,1119.245605 518.001465,1065.000000 
z"/>
<path fill="#FDFDFD" opacity="1.000000" stroke="none" 
	d="
M1117.035889,1030.007324 
	C1105.876587,1046.567139 1090.433716,1055.311279 1070.966187,1056.054932 
	C1045.467773,1057.028931 1022.664368,1039.475952 1014.866455,1015.076111 
	C1002.923096,977.705261 1032.161377,936.675964 1074.309937,940.056641 
	C1095.144165,941.727722 1110.786377,952.592529 1120.166992,971.422607 
	C1130.047974,991.257141 1128.851807,1010.803711 1117.035889,1030.007324 
z"/>
<path fill="#F3F3F3" opacity="1.000000" stroke="none" 
	d="
M730.399841,1405.999756 
	C730.399841,1382.865723 730.399841,1360.231812 730.399841,1337.250977 
	C734.767090,1337.250977 738.837646,1337.250977 743.356995,1337.250977 
	C753.880188,1363.337280 764.506348,1389.678711 775.132507,1416.020264 
	C775.545776,1416.041260 775.958984,1416.062378 776.372192,1416.083496 
	C778.346497,1411.307007 780.390747,1406.558105 782.282654,1401.749268 
	C790.110962,1381.851685 797.921753,1361.947021 805.665710,1342.016479 
	C807.032593,1338.498535 808.707092,1335.995483 813.136780,1336.839111 
	C815.217712,1337.235474 817.436646,1336.906982 819.946533,1336.906982 
	C819.946533,1370.134521 819.946533,1403.144653 819.946533,1436.419189 
	C816.724304,1436.419189 813.632690,1436.419189 810.055420,1436.419189 
	C810.055420,1407.979980 810.055420,1379.637573 810.055420,1351.295166 
	C809.637756,1351.189209 809.220093,1351.083252 808.802429,1350.977417 
	C797.079346,1380.107544 785.356201,1409.237671 773.112671,1439.661011 
	C761.057495,1409.723511 749.493774,1381.006348 737.930115,1352.289185 
	C737.665527,1352.336304 737.400940,1352.383545 737.136353,1352.430664 
	C737.136353,1380.226929 737.136353,1408.023071 737.136353,1436.398071 
	C734.851379,1436.509155 732.967224,1436.600708 730.399841,1436.725464 
	C730.399841,1426.385986 730.399841,1416.442871 730.399841,1405.999756 
z"/>
<path fill="#F1F1F1" opacity="1.000000" stroke="none" 
	d="
M1197.554810,1353.004150 
	C1197.554810,1381.916748 1197.554810,1410.330444 1197.554810,1440.129150 
	C1174.702881,1410.484131 1152.711304,1381.955200 1129.755859,1352.175903 
	C1129.755859,1381.043579 1129.755859,1408.476562 1129.755859,1436.323853 
	C1127.348755,1436.494019 1125.608032,1436.616943 1123.449219,1436.769531 
	C1123.449219,1403.481445 1123.449219,1370.454956 1123.449219,1337.399902 
	C1129.591797,1335.553467 1133.466797,1337.727783 1137.367188,1342.995117 
	C1154.614380,1366.287598 1172.400146,1389.181396 1190.737915,1413.197632 
	C1190.737915,1387.237549 1190.737915,1362.404785 1190.737915,1337.241455 
	C1193.162476,1337.241455 1195.059570,1337.241455 1197.554810,1337.241455 
	C1197.554810,1342.286255 1197.554810,1347.395752 1197.554810,1353.004150 
z"/>
<path fill="#F5F5F5" opacity="1.000000" stroke="none" 
	d="
M1243.019409,1411.944580 
	C1232.485596,1388.646729 1237.777588,1361.497925 1254.214355,1346.193359 
	C1275.261108,1326.596436 1310.058228,1331.555664 1324.122925,1356.734253 
	C1336.450439,1378.802734 1335.612671,1400.690674 1320.870483,1421.382324 
	C1303.861816,1445.255005 1265.892700,1444.932251 1248.787231,1421.051636 
	C1246.769897,1418.235352 1245.043091,1415.210938 1243.019409,1411.944580 
M1292.100952,1433.921997 
	C1302.080322,1430.995728 1309.304932,1424.529175 1313.610718,1415.370239 
	C1322.689087,1396.059082 1322.697388,1376.510864 1313.211426,1357.264160 
	C1301.639771,1333.785645 1273.229614,1331.708496 1259.130981,1353.708618 
	C1245.972412,1374.241699 1246.641235,1396.026733 1257.306519,1417.266113 
	C1264.104370,1430.803345 1277.411865,1436.605347 1292.100952,1433.921997 
z"/>
<path fill="#F4F4F4" opacity="1.000000" stroke="none" 
	d="
M1018.060669,1410.997559 
	C1015.055420,1418.266724 1011.755493,1425.022339 1009.526123,1432.114258 
	C1008.011536,1436.932251 1005.523254,1437.369629 1001.149048,1436.046265 
	C1014.807190,1402.110352 1028.405029,1368.324341 1042.377563,1333.607300 
	C1056.168457,1368.270996 1069.627075,1402.099121 1083.366699,1436.633789 
	C1079.886353,1436.633789 1076.881226,1437.011719 1074.053467,1436.467407 
	C1072.724854,1436.211670 1071.273193,1434.372681 1070.674683,1432.922119 
	C1067.773193,1425.889648 1064.918945,1418.820679 1062.497070,1411.613647 
	C1061.006348,1407.177856 1059.004517,1404.907227 1053.804688,1405.170898 
	C1044.498779,1405.643066 1035.136230,1405.624390 1025.828735,1405.169312 
	C1021.304810,1404.948242 1018.996399,1406.341309 1018.060669,1410.997559 
M1037.506226,1400.561523 
	C1044.053345,1400.561523 1050.600464,1400.561523 1057.698120,1400.561523 
	C1051.712891,1384.952026 1046.078247,1370.256470 1040.032837,1354.489868 
	C1033.831665,1370.363159 1028.096802,1385.042847 1022.393921,1399.640869 
	C1023.027283,1400.073730 1023.287231,1400.405396 1023.552734,1400.410034 
	C1027.871704,1400.484985 1032.191406,1400.518677 1037.506226,1400.561523 
z"/>
<path fill="#EFEFEF" opacity="1.000000" stroke="none" 
	d="
M922.332275,1345.087646 
	C922.330566,1342.287476 922.330566,1339.973755 922.330566,1337.280029 
	C925.956299,1337.280029 929.346863,1337.280029 933.092712,1337.280029 
	C933.092712,1368.292969 933.092712,1399.393311 933.092712,1431.073975 
	C945.471924,1431.073975 957.529297,1431.073975 969.787476,1431.073975 
	C969.787476,1433.094360 969.787476,1434.533813 969.787476,1436.337646 
	C954.162842,1436.337646 938.596863,1436.337646 922.334045,1436.337646 
	C922.334045,1406.066040 922.334045,1375.819946 922.332275,1345.087646 
z"/>
<path fill="#F5F5F5" opacity="1.000000" stroke="none" 
	d="
M875.949707,1399.000000 
	C875.949707,1411.635132 875.949707,1423.770142 875.949707,1436.275391 
	C872.364197,1436.275391 868.982422,1436.275391 865.344116,1436.275391 
	C865.344116,1403.334839 865.344116,1370.477417 865.344116,1337.267944 
	C868.699463,1337.267944 872.069885,1337.267944 875.949707,1337.267944 
	C875.949707,1357.690674 875.949707,1378.095337 875.949707,1399.000000 
z"/>
<path fill="#030303" opacity="1.000000" stroke="none" 
	d="
M1721.920410,1037.828369 
	C1715.046997,1077.114258 1698.598999,1110.942017 1669.502197,1138.073242 
	C1645.660400,1160.304688 1617.321045,1172.840698 1585.041138,1176.693237 
	C1541.402344,1181.901489 1501.350708,1172.903442 1466.288452,1145.716309 
	C1448.391846,1131.839478 1434.594360,1114.292114 1424.110229,1094.177246 
	C1411.967896,1070.881470 1404.835938,1046.210938 1403.593872,1019.912476 
	C1402.616333,999.211426 1406.229980,979.238586 1412.777832,959.648743 
	C1419.473022,939.618164 1429.284424,921.315491 1442.554932,904.945068 
	C1459.151123,884.472229 1479.546997,869.032349 1504.227295,859.403320 
	C1532.239746,848.474243 1561.253052,846.121277 1590.619873,850.817200 
	C1632.383179,857.495422 1665.865967,878.220642 1690.447021,912.913879 
	C1716.975830,950.356201 1727.391113,991.862488 1721.920410,1037.828369 
z"/>
<path fill="#050505" opacity="1.000000" stroke="none" 
	d="
M1291.695557,1433.993042 
	C1277.411865,1436.605347 1264.104370,1430.803345 1257.306519,1417.266113 
	C1246.641235,1396.026733 1245.972412,1374.241699 1259.130981,1353.708618 
	C1273.229614,1331.708496 1301.639771,1333.785645 1313.211426,1357.264160 
	C1322.697388,1376.510864 1322.689087,1396.059082 1313.610718,1415.370239 
	C1309.304932,1424.529175 1302.080322,1430.995728 1291.695557,1433.993042 
z"/>
<path fill="#0C0C0C" opacity="1.000000" stroke="none" 
	d="
M1037.008545,1400.561523 
	C1032.191406,1400.518677 1027.871704,1400.484985 1023.552734,1400.410034 
	C1023.287231,1400.405396 1023.027283,1400.073730 1022.393921,1399.640869 
	C1028.096802,1385.042847 1033.831665,1370.363159 1040.032837,1354.489868 
	C1046.078247,1370.256470 1051.712891,1384.952026 1057.698120,1400.561523 
	C1050.600464,1400.561523 1044.053345,1400.561523 1037.008545,1400.561523 
z"/>
</svg>