<svg version="1.1" id="Layer_1" xmlns="http://www.w3.org/2000/svg" xmlns:xlink="http://www.w3.org/1999/xlink" x="0px" y="0px"
	 width="100%" viewBox="0 0 400 400" enable-background="new 0 0 400 400" xml:space="preserve">
<path fill="#020101" opacity="1.000000" stroke="none" 
	d="
M233.000000,401.000000 
	C155.333328,401.000000 78.166664,401.000000 1.000000,401.000000 
	C1.000000,267.666656 1.000000,134.333328 1.000000,1.000000 
	C134.333328,1.000000 267.666656,1.000000 401.000000,1.000000 
	C401.000000,134.333328 401.000000,267.666656 401.000000,401.000000 
	C345.166656,401.000000 289.333344,401.000000 233.000000,401.000000 
M150.258698,160.562241 
	C149.772522,160.118256 149.286346,159.674255 148.823685,159.177155 
	C148.823685,159.177155 148.770203,159.199799 148.495392,158.500580 
	C146.622986,158.061096 144.755997,157.270966 142.877243,157.241928 
	C134.060852,157.105652 125.241219,157.181458 116.422745,157.175705 
	C111.930435,157.172775 107.432823,157.023758 102.947906,157.201080 
	C100.485382,157.298447 97.593224,157.706879 101.633018,161.297791 
	C102.341331,161.326431 103.049637,161.355072 104.326408,161.695480 
	C105.662971,163.096542 106.999535,164.497604 108.015152,166.802963 
	C107.939796,181.960480 107.932632,197.118942 107.726837,212.274689 
	C107.689377,215.032883 106.840401,217.780060 105.892998,220.678467 
	C105.468872,220.930283 105.044746,221.182114 103.922569,221.292282 
	C103.245285,221.485367 102.568001,221.678467 101.368858,222.138000 
	C100.144119,226.807495 103.920593,225.515045 105.859978,225.539993 
	C117.841156,225.694199 129.825439,225.607773 141.808685,225.601196 
	C151.965332,225.595627 152.334152,225.321838 155.008026,215.351471 
	C155.761322,212.542587 156.422485,209.709000 157.125900,206.886734 
	C156.521652,206.627197 155.917404,206.367645 155.313156,206.108109 
	C154.244705,207.567734 152.925232,208.907181 152.157578,210.510803 
	C150.289185,214.413803 147.599243,217.057312 143.094040,217.289703 
	C135.297882,217.691849 127.498421,218.029602 119.435089,217.563171 
	C119.437851,213.797623 119.440613,210.032074 119.875389,205.670746 
	C120.109764,203.050613 120.551170,200.428787 120.529572,197.810760 
	C120.497864,193.966583 122.283043,192.417160 125.991547,192.608200 
	C130.600861,192.845673 135.214890,192.991241 140.190674,193.479752 
	C140.424835,193.693756 140.632217,193.931168 140.833298,194.975677 
	C140.945343,195.629730 140.869415,196.409958 141.206848,196.912766 
	C142.021179,198.126205 143.028687,199.210022 143.958298,200.346115 
	C144.633453,198.993973 145.834839,197.663132 145.890533,196.285934 
	C146.104843,190.986023 146.065857,185.666763 145.853180,180.365463 
	C145.803070,179.116547 144.706680,177.909592 144.091629,176.683334 
	C143.153076,177.619385 141.620178,178.423798 141.378662,179.514236 
	C140.322601,184.282181 137.350540,186.077393 132.756119,185.959702 
	C129.771652,185.883240 126.784286,185.926361 123.798363,185.899628 
	C121.168411,185.876083 119.838326,184.626724 119.915176,181.903229 
	C120.088043,175.776825 120.200363,169.648697 121.228691,163.446808 
	C126.376717,163.436783 131.533585,163.609360 136.670013,163.360199 
	C140.943359,163.152924 144.500259,164.315125 147.498795,168.062805 
	C147.768951,168.658417 148.039108,169.254028 148.427475,170.335190 
	C149.194885,170.415344 149.962311,170.495483 150.729706,170.575638 
	C150.688095,169.575012 150.646484,168.574402 150.501785,167.263367 
	C150.501785,167.263367 150.224319,167.090179 150.257507,166.277817 
	C150.109558,165.205231 149.961624,164.132645 150.085205,162.406021 
	C150.098190,161.935669 150.111160,161.465332 150.258698,160.562241 
M79.010170,188.515564 
	C83.799286,184.756088 85.381470,179.714859 84.599525,173.882950 
	C83.388893,164.853821 75.816238,158.428680 65.574394,158.109879 
	C56.094784,157.814804 46.600540,157.963287 37.112942,157.989441 
	C36.088757,157.992279 35.065907,158.480682 33.647186,158.845505 
	C34.270344,159.842270 34.486092,160.679214 34.942890,160.842728 
	C40.067635,162.677124 40.468491,166.742249 40.414192,171.367340 
	C40.267647,183.849945 40.388924,196.335464 40.349842,208.819672 
	C40.331936,214.539246 41.947998,221.072861 33.051300,223.349197 
	C41.969151,224.782532 50.182114,224.730606 58.542019,223.723785 
	C57.828293,222.377106 56.768223,221.944504 56.135857,221.164948 
	C54.681568,219.372131 52.449299,217.489075 52.291046,215.502563 
	C51.830349,209.719696 52.090519,203.861572 52.352364,198.045761 
	C52.504986,194.655853 55.468449,193.317307 58.351093,195.271225 
	C59.682137,196.173431 60.696854,197.611755 61.690331,198.931015 
	C67.092613,206.104828 72.420830,213.334412 77.820572,220.510178 
	C81.112885,224.885345 91.498070,226.315048 96.742325,222.926880 
	C94.369339,221.567017 91.902168,220.571991 89.977478,218.937988 
	C87.852737,217.134186 86.088638,214.845978 84.411949,212.587265 
	C81.538864,208.716843 78.824394,204.726868 76.099701,200.748489 
	C70.281281,192.252884 71.229347,193.667892 79.010170,188.515564 
M159.631119,157.941162 
	C156.308380,158.366486 155.802200,159.963333 158.826019,161.333664 
	C162.949554,163.202362 163.663605,166.266876 163.630569,170.225967 
	C163.527740,182.554901 163.626129,194.885330 163.575729,207.214905 
	C163.550797,213.318085 165.540375,220.288025 156.665497,223.381836 
	C165.245453,224.936676 173.258392,224.785828 181.059311,224.260788 
	C178.732407,220.759064 175.715881,218.134918 175.271362,215.130280 
	C174.477844,209.766724 175.301132,204.173706 175.321289,198.676178 
	C175.332260,195.686295 176.703629,194.505417 179.620087,194.567902 
	C182.613007,194.632050 185.638809,194.689850 188.601776,194.340118 
	C197.833206,193.250488 204.162292,188.444534 205.897766,181.478012 
	C209.087341,168.674408 201.498734,158.626343 187.890533,158.116699 
	C178.738449,157.773956 169.565353,157.992310 159.631119,157.941162 
M261.495850,224.509171 
	C266.628510,224.509171 271.761139,224.509171 276.288177,224.509171 
	C274.912628,221.338943 272.599609,218.672653 273.097900,216.725952 
	C276.445526,203.647278 276.933868,203.471558 290.175598,203.474609 
	C292.175018,203.475067 294.192963,203.653442 296.169891,203.443619 
	C299.925812,203.044998 302.149414,204.704605 303.384705,208.126862 
	C303.948456,209.688721 304.746765,211.164505 305.402649,212.694778 
	C308.222900,219.274658 308.214874,219.271667 302.577698,222.757492 
	C302.435333,222.845505 302.559753,223.364914 302.559753,224.147827 
	C310.269806,224.147827 317.981232,224.147827 325.129181,224.147827 
	C322.419769,219.720596 319.420624,215.723877 317.360077,211.290878 
	C309.860870,195.157455 302.701111,178.866516 295.333160,162.671432 
	C294.580353,161.016693 293.288971,159.606979 291.799286,157.427887 
	C290.591125,159.436630 289.801086,160.474716 289.293396,161.636215 
	C283.092865,175.822342 277.133850,190.118469 270.674377,204.185028 
	C267.712158,210.635788 266.955261,218.587723 259.600525,222.425232 
	C260.030823,223.100952 260.461090,223.776657 261.495850,224.509171 
M339.181702,224.538376 
	C345.152527,224.538376 351.123322,224.538376 356.857086,224.538376 
	C354.365540,220.748871 351.121490,217.971497 350.744751,214.848251 
	C349.478851,204.354004 349.861786,193.896698 357.365570,185.183640 
	C358.325043,184.069473 358.765106,182.520828 359.664062,181.339569 
	C365.168884,174.105865 367.196686,164.085800 376.679199,160.003784 
	C376.867035,159.922928 376.741699,159.114655 376.760773,158.684021 
	C370.499298,158.684021 364.384186,158.684021 358.269104,158.684021 
	C363.026093,162.303619 361.512390,165.529678 359.215363,169.078690 
	C356.142975,173.825623 353.378754,178.771011 350.383606,183.569672 
	C349.578613,184.859344 348.416107,185.925888 346.724243,187.906830 
	C343.076996,181.436005 339.857147,175.871384 336.787903,170.224884 
	C334.816803,166.598572 330.420410,162.899521 336.555481,158.539795 
	C328.647064,158.539795 320.738647,158.539795 312.830231,158.539795 
	C312.585815,159.001144 312.341400,159.462479 312.096985,159.923828 
	C319.918732,161.488892 322.236847,168.017960 325.682831,173.519791 
	C327.095062,175.774521 328.420563,178.083588 329.787811,180.366531 
	C335.330750,189.621582 341.118042,198.549393 339.578217,210.416351 
	C338.869934,215.874863 338.785522,220.570862 332.764191,222.591446 
	C332.668579,222.623520 332.752228,223.189758 332.752228,224.148697 
	C334.576233,224.278946 336.471283,224.414276 339.181702,224.538376 
M227.499268,224.714233 
	C234.656143,224.713898 241.813721,224.767151 248.969330,224.672165 
	C250.577560,224.650833 252.399506,224.494461 253.734222,223.725418 
	C256.006897,222.415924 259.037781,210.372040 257.887451,206.499359 
	C254.810974,214.171814 249.434860,218.214203 241.943451,219.058990 
	C238.158234,219.485855 234.310303,219.380646 230.489578,219.462402 
	C225.963486,219.559250 223.981216,217.590012 224.073547,212.789139 
	C224.316757,200.144333 224.268921,187.490540 224.116302,174.842987 
	C224.043152,168.782928 223.354248,162.680374 230.776825,160.087860 
	C230.917664,160.038696 230.881653,159.483170 231.082336,158.105347 
	C222.704971,157.989426 214.502335,157.622406 205.675278,159.236710 
	C215.262589,162.685837 212.926437,170.249710 212.975174,176.811951 
	C213.056732,187.796371 212.779999,198.787918 213.087219,209.764359 
	C213.246918,215.470016 212.726471,220.326996 206.514069,222.542297 
	C206.413239,222.578247 206.501450,223.144272 206.501450,224.710571 
	C213.107834,224.710571 219.803665,224.710571 227.499268,224.714233 
z"/>
<path fill="#C8161E" opacity="1.000000" stroke="none" 
	d="
M78.718315,188.726379 
	C71.229347,193.667892 70.281281,192.252884 76.099701,200.748489 
	C78.824394,204.726868 81.538864,208.716843 84.411949,212.587265 
	C86.088638,214.845978 87.852737,217.134186 89.977478,218.937988 
	C91.902168,220.571991 94.369339,221.567017 96.742325,222.926880 
	C91.498070,226.315048 81.112885,224.885345 77.820572,220.510178 
	C72.420830,213.334412 67.092613,206.104828 61.690331,198.931015 
	C60.696854,197.611755 59.682137,196.173431 58.351093,195.271225 
	C55.468449,193.317307 52.504986,194.655853 52.352364,198.045761 
	C52.090519,203.861572 51.830349,209.719696 52.291046,215.502563 
	C52.449299,217.489075 54.681568,219.372131 56.135857,221.164948 
	C56.768223,221.944504 57.828293,222.377106 58.542019,223.723785 
	C50.182114,224.730606 41.969151,224.782532 33.051300,223.349197 
	C41.947998,221.072861 40.331936,214.539246 40.349842,208.819672 
	C40.388924,196.335464 40.267647,183.849945 40.414192,171.367340 
	C40.468491,166.742249 40.067635,162.677124 34.942890,160.842728 
	C34.486092,160.679214 34.270344,159.842270 33.647186,158.845505 
	C35.065907,158.480682 36.088757,157.992279 37.112942,157.989441 
	C46.600540,157.963287 56.094784,157.814804 65.574394,158.109879 
	C75.816238,158.428680 83.388893,164.853821 84.599525,173.882950 
	C85.381470,179.714859 83.799286,184.756088 78.718315,188.726379 
M63.816097,188.666412 
	C70.546333,185.515091 73.535248,179.639435 71.842163,172.888657 
	C70.172234,166.230240 64.332878,162.630936 56.432327,163.145279 
	C53.371231,163.344559 51.854183,164.537842 51.901196,167.724960 
	C51.982277,173.221786 51.856331,178.721527 51.923550,184.218735 
	C51.987831,189.476196 53.377090,190.638580 58.694462,189.954514 
	C60.169846,189.764709 61.605572,189.266632 63.816097,188.666412 
z"/>
<path fill="#C8171E" opacity="1.000000" stroke="none" 
	d="
M160.016388,157.950378 
	C169.565353,157.992310 178.738449,157.773956 187.890533,158.116699 
	C201.498734,158.626343 209.087341,168.674408 205.897766,181.478012 
	C204.162292,188.444534 197.833206,193.250488 188.601776,194.340118 
	C185.638809,194.689850 182.613007,194.632050 179.620087,194.567902 
	C176.703629,194.505417 175.332260,195.686295 175.321289,198.676178 
	C175.301132,204.173706 174.477844,209.766724 175.271362,215.130280 
	C175.715881,218.134918 178.732407,220.759064 181.059311,224.260788 
	C173.258392,224.785828 165.245453,224.936676 156.665497,223.381836 
	C165.540375,220.288025 163.550797,213.318085 163.575729,207.214905 
	C163.626129,194.885330 163.527740,182.554901 163.630569,170.225967 
	C163.663605,166.266876 162.949554,163.202362 158.826019,161.333664 
	C155.802200,159.963333 156.308380,158.366486 160.016388,157.950378 
M187.401978,164.768570 
	C185.835403,164.280106 184.300110,163.564987 182.696655,163.343597 
	C176.730728,162.519836 174.925949,164.159393 174.893585,170.229919 
	C174.868866,174.867264 175.032761,179.510666 174.845276,184.140533 
	C174.693848,187.880081 176.619705,189.076874 179.932892,189.289062 
	C186.692123,189.721985 191.391998,187.141800 193.597931,181.635620 
	C196.035538,175.551147 194.162521,170.036758 187.401978,164.768570 
z"/>
<path fill="#C5161D" opacity="1.000000" stroke="none" 
	d="
M261.193604,224.480774 
	C260.461090,223.776657 260.030823,223.100952 259.600525,222.425232 
	C266.955261,218.587723 267.712158,210.635788 270.674377,204.185028 
	C277.133850,190.118469 283.092865,175.822342 289.293396,161.636215 
	C289.801086,160.474716 290.591125,159.436630 291.799286,157.427887 
	C293.288971,159.606979 294.580353,161.016693 295.333160,162.671432 
	C302.701111,178.866516 309.860870,195.157455 317.360077,211.290878 
	C319.420624,215.723877 322.419769,219.720596 325.129181,224.147827 
	C317.981232,224.147827 310.269806,224.147827 302.559753,224.147827 
	C302.559753,223.364914 302.435333,222.845505 302.577698,222.757492 
	C308.214874,219.271667 308.222900,219.274658 305.402649,212.694778 
	C304.746765,211.164505 303.948456,209.688721 303.384705,208.126862 
	C302.149414,204.704605 299.925812,203.044998 296.169891,203.443619 
	C294.192963,203.653442 292.175018,203.475067 290.175598,203.474609 
	C276.933868,203.471558 276.445526,203.647278 273.097900,216.725952 
	C272.599609,218.672653 274.912628,221.338943 276.288177,224.509171 
	C271.761139,224.509171 266.628510,224.509171 261.193604,224.480774 
M287.006744,182.564194 
	C285.469238,186.050644 283.749146,189.473694 282.503296,193.061447 
	C282.120117,194.165054 282.968323,196.869080 283.362305,196.891220 
	C288.156281,197.160812 292.970734,197.066284 298.761902,197.066284 
	C296.136383,190.868530 294.302307,185.910461 291.956573,181.207581 
	C290.192169,177.670181 288.512390,179.137543 287.006744,182.564194 
z"/>
<path fill="#C5161D" opacity="1.000000" stroke="none" 
	d="
M338.774048,224.543991 
	C336.471283,224.414276 334.576233,224.278946 332.752228,224.148697 
	C332.752228,223.189758 332.668579,222.623520 332.764191,222.591446 
	C338.785522,220.570862 338.869934,215.874863 339.578217,210.416351 
	C341.118042,198.549393 335.330750,189.621582 329.787811,180.366531 
	C328.420563,178.083588 327.095062,175.774521 325.682831,173.519791 
	C322.236847,168.017960 319.918732,161.488892 312.096985,159.923828 
	C312.341400,159.462479 312.585815,159.001144 312.830231,158.539795 
	C320.738647,158.539795 328.647064,158.539795 336.555481,158.539795 
	C330.420410,162.899521 334.816803,166.598572 336.787903,170.224884 
	C339.857147,175.871384 343.076996,181.436005 346.724243,187.906830 
	C348.416107,185.925888 349.578613,184.859344 350.383606,183.569672 
	C353.378754,178.771011 356.142975,173.825623 359.215363,169.078690 
	C361.512390,165.529678 363.026093,162.303619 358.269104,158.684021 
	C364.384186,158.684021 370.499298,158.684021 376.760773,158.684021 
	C376.741699,159.114655 376.867035,159.922928 376.679199,160.003784 
	C367.196686,164.085800 365.168884,174.105865 359.664062,181.339569 
	C358.765106,182.520828 358.325043,184.069473 357.365570,185.183640 
	C349.861786,193.896698 349.478851,204.354004 350.744751,214.848251 
	C351.121490,217.971497 354.365540,220.748871 356.857086,224.538376 
	C351.123322,224.538376 345.152527,224.538376 338.774048,224.543991 
z"/>
<path fill="#C5161D" opacity="1.000000" stroke="none" 
	d="
M226.999390,224.712402 
	C219.803665,224.710571 213.107834,224.710571 206.501450,224.710571 
	C206.501450,223.144272 206.413239,222.578247 206.514069,222.542297 
	C212.726471,220.326996 213.246918,215.470016 213.087219,209.764359 
	C212.779999,198.787918 213.056732,187.796371 212.975174,176.811951 
	C212.926437,170.249710 215.262589,162.685837 205.675278,159.236710 
	C214.502335,157.622406 222.704971,157.989426 231.082336,158.105347 
	C230.881653,159.483170 230.917664,160.038696 230.776825,160.087860 
	C223.354248,162.680374 224.043152,168.782928 224.116302,174.842987 
	C224.268921,187.490540 224.316757,200.144333 224.073547,212.789139 
	C223.981216,217.590012 225.963486,219.559250 230.489578,219.462402 
	C234.310303,219.380646 238.158234,219.485855 241.943451,219.058990 
	C249.434860,218.214203 254.810974,214.171814 257.887451,206.499359 
	C259.037781,210.372040 256.006897,222.415924 253.734222,223.725418 
	C252.399506,224.494461 250.577560,224.650833 248.969330,224.672165 
	C241.813721,224.767151 234.656143,224.713898 226.999390,224.712402 
z"/>
<path fill="#DC1921" opacity="1.000000" stroke="none" 
	d="
M147.431335,167.411102 
	C144.500259,164.315125 140.943359,163.152924 136.670013,163.360199 
	C131.533585,163.609360 126.376717,163.436783 120.393234,163.536972 
	C119.096519,164.058029 118.241310,164.481537 118.233078,164.920944 
	C118.108948,171.547134 117.946564,178.181473 118.213890,184.796890 
	C118.255348,185.822723 120.463097,187.687881 121.532471,187.594833 
	C128.475769,186.990753 136.006485,190.465912 143.098282,183.439926 
	C143.098282,187.746964 143.156006,190.647934 142.998978,193.537216 
	C142.985001,193.794327 141.574646,193.975540 140.812820,194.191986 
	C140.632217,193.931168 140.424835,193.693756 139.846375,192.965881 
	C137.011322,191.981323 134.524353,191.127777 132.029190,191.103119 
	C117.642479,190.961014 116.993187,191.812119 119.443375,206.266525 
	C119.440613,210.032074 119.437851,213.797623 119.717010,218.321198 
	C121.778572,219.692856 123.533180,220.742554 125.342102,220.846436 
	C134.303925,221.361053 143.036682,220.035553 151.416153,216.522690 
	C151.746155,216.835999 152.076157,217.149292 152.406158,217.462601 
	C151.107056,219.471436 149.807938,221.480270 148.480438,223.369171 
	C148.446442,223.333649 148.440857,223.418076 148.004028,223.555115 
	C133.466660,223.623871 119.360527,223.639999 105.147751,223.286316 
	C104.900940,222.422333 104.760780,221.928131 104.620621,221.433945 
	C105.044746,221.182114 105.468872,220.930283 106.516464,220.586243 
	C108.044655,218.408966 109.699715,216.335831 109.733055,214.236923 
	C109.959465,199.982758 109.898369,185.722656 109.772270,171.465897 
	C109.755821,169.606064 108.836983,167.754211 108.336105,165.898666 
	C106.999535,164.497604 105.662971,163.096542 104.092278,161.153107 
	C103.926498,160.095856 103.994850,159.580994 104.527840,159.071243 
	C119.585052,159.117508 134.177628,159.158646 148.770203,159.199799 
	C148.770203,159.199799 148.823685,159.177155 148.785370,159.502472 
	C148.831024,160.218735 148.914978,160.609680 148.926208,161.201874 
	C149.173523,161.955460 149.493607,162.507767 149.813690,163.060059 
	C149.961624,164.132645 150.109558,165.205231 149.774796,166.731964 
	C148.671829,167.261093 148.051590,167.336090 147.431335,167.411102 
z"/>
<path fill="#6E0C0F" opacity="1.000000" stroke="none" 
	d="
M105.254395,223.656128 
	C119.360527,223.639999 133.466660,223.623871 148.021805,223.534042 
	C148.470825,223.460342 148.508835,223.489105 148.508835,223.489105 
	C149.807938,221.480270 151.107056,219.471436 152.406158,217.462601 
	C152.076157,217.149292 151.746155,216.835999 151.416153,216.522690 
	C143.036682,220.035553 134.303925,221.361053 125.342102,220.846436 
	C123.533180,220.742554 121.778572,219.692856 119.849640,218.736786 
	C127.498421,218.029602 135.297882,217.691849 143.094040,217.289703 
	C147.599243,217.057312 150.289185,214.413803 152.157578,210.510803 
	C152.925232,208.907181 154.244705,207.567734 155.313156,206.108109 
	C155.917404,206.367645 156.521652,206.627197 157.125900,206.886734 
	C156.422485,209.709000 155.761322,212.542587 155.008026,215.351471 
	C152.334152,225.321838 151.965332,225.595627 141.808685,225.601196 
	C129.825439,225.607773 117.841156,225.694199 105.859978,225.539993 
	C103.920593,225.515045 100.144119,226.807495 101.807594,222.298676 
	C103.249016,222.858276 104.251709,223.257202 105.254395,223.656128 
z"/>
<path fill="#6E0C0F" opacity="1.000000" stroke="none" 
	d="
M140.823059,194.583832 
	C141.574646,193.975540 142.985001,193.794327 142.998978,193.537216 
	C143.156006,190.647934 143.098282,187.746964 143.098282,183.439926 
	C136.006485,190.465912 128.475769,186.990753 121.532471,187.594833 
	C120.463097,187.687881 118.255348,185.822723 118.213890,184.796890 
	C117.946564,178.181473 118.108948,171.547134 118.233078,164.920944 
	C118.241310,164.481537 119.096519,164.058029 119.947556,163.574203 
	C120.200363,169.648697 120.088043,175.776825 119.915176,181.903229 
	C119.838326,184.626724 121.168411,185.876083 123.798363,185.899628 
	C126.784286,185.926361 129.771652,185.883240 132.756119,185.959702 
	C137.350540,186.077393 140.322601,184.282181 141.378662,179.514236 
	C141.620178,178.423798 143.153076,177.619385 144.091629,176.683334 
	C144.706680,177.909592 145.803070,179.116547 145.853180,180.365463 
	C146.065857,185.666763 146.104843,190.986023 145.890533,196.285934 
	C145.834839,197.663132 144.633453,198.993973 143.958298,200.346115 
	C143.028687,199.210022 142.021179,198.126205 141.206848,196.912766 
	C140.869415,196.409958 140.945343,195.629730 140.823059,194.583832 
z"/>
<path fill="#A31116" opacity="1.000000" stroke="none" 
	d="
M108.175629,166.350815 
	C108.836983,167.754211 109.755821,169.606064 109.772270,171.465897 
	C109.898369,185.722656 109.959465,199.982758 109.733055,214.236923 
	C109.699715,216.335831 108.044655,218.408966 106.752991,220.513184 
	C106.840401,217.780060 107.689377,215.032883 107.726837,212.274689 
	C107.932632,197.118942 107.939796,181.960480 108.175629,166.350815 
z"/>
<path fill="#6E0C0F" opacity="1.000000" stroke="none" 
	d="
M148.632797,158.850189 
	C134.177628,159.158646 119.585052,159.117508 104.195877,159.079651 
	C102.584167,159.742020 101.769051,160.401062 100.953934,161.060104 
	C97.593224,157.706879 100.485382,157.298447 102.947906,157.201080 
	C107.432823,157.023758 111.930435,157.172775 116.422745,157.175705 
	C125.241219,157.181458 134.060852,157.105652 142.877243,157.241928 
	C144.755997,157.270966 146.622986,158.061096 148.632797,158.850189 
z"/>
<path fill="#6E0C0F" opacity="1.000000" stroke="none" 
	d="
M119.659386,205.968628 
	C116.993187,191.812119 117.642479,190.961014 132.029190,191.103119 
	C134.524353,191.127777 137.011322,191.981323 139.664490,192.814270 
	C135.214890,192.991241 130.600861,192.845673 125.991547,192.608200 
	C122.283043,192.417160 120.497864,193.966583 120.529572,197.810760 
	C120.551170,200.428787 120.109764,203.050613 119.659386,205.968628 
z"/>
<path fill="#6E0C0F" opacity="1.000000" stroke="none" 
	d="
M150.604858,167.573776 
	C150.646484,168.574402 150.688095,169.575012 150.729706,170.575638 
	C149.962311,170.495483 149.194885,170.415344 148.653320,169.931885 
	C149.454407,168.876999 150.029648,168.225388 150.604858,167.573776 
z"/>
<path fill="#A31116" opacity="1.000000" stroke="none" 
	d="
M150.553329,167.418579 
	C150.029648,168.225388 149.454407,168.876999 148.594208,169.689117 
	C148.039108,169.254028 147.768951,168.658417 147.465057,167.736954 
	C148.051590,167.336090 148.671829,167.261093 149.758209,167.138138 
	C150.224319,167.090179 150.501785,167.263367 150.553329,167.418579 
z"/>
<path fill="#A31116" opacity="1.000000" stroke="none" 
	d="
M105.147751,223.286316 
	C104.251709,223.257202 103.249016,222.858276 102.068527,222.165451 
	C102.568001,221.678467 103.245285,221.485367 104.271591,221.363113 
	C104.760780,221.928131 104.900940,222.422333 105.147751,223.286316 
z"/>
<path fill="#A31116" opacity="1.000000" stroke="none" 
	d="
M101.293472,161.178955 
	C101.769051,160.401062 102.584167,159.742020 103.731247,159.074554 
	C103.994850,159.580994 103.926498,160.095856 103.808044,160.997223 
	C103.049637,161.355072 102.341331,161.326431 101.293472,161.178955 
z"/>
<path fill="#A31116" opacity="1.000000" stroke="none" 
	d="
M149.949448,162.733032 
	C149.493607,162.507767 149.173523,161.955460 149.207520,161.203461 
	C149.749100,161.000854 149.936630,160.997925 150.124146,160.994980 
	C150.111160,161.465332 150.098190,161.935669 149.949448,162.733032 
z"/>
<path fill="#6E0C0F" opacity="1.000000" stroke="none" 
	d="
M150.191422,160.778610 
	C149.936630,160.997925 149.749100,161.000854 149.280273,161.002197 
	C148.914978,160.609680 148.831024,160.218735 148.773621,159.529037 
	C149.286346,159.674255 149.772522,160.118256 150.191422,160.778610 
z"/>
<path fill="#0E0102" opacity="1.000000" stroke="none" 
	d="
M63.437798,188.788208 
	C61.605572,189.266632 60.169846,189.764709 58.694462,189.954514 
	C53.377090,190.638580 51.987831,189.476196 51.923550,184.218735 
	C51.856331,178.721527 51.982277,173.221786 51.901196,167.724960 
	C51.854183,164.537842 53.371231,163.344559 56.432327,163.145279 
	C64.332878,162.630936 70.172234,166.230240 71.842163,172.888657 
	C73.535248,179.639435 70.546333,185.515091 63.437798,188.788208 
z"/>
<path fill="#0D0102" opacity="1.000000" stroke="none" 
	d="
M187.712357,164.995071 
	C194.162521,170.036758 196.035538,175.551147 193.597931,181.635620 
	C191.391998,187.141800 186.692123,189.721985 179.932892,189.289062 
	C176.619705,189.076874 174.693848,187.880081 174.845276,184.140533 
	C175.032761,179.510666 174.868866,174.867264 174.893585,170.229919 
	C174.925949,164.159393 176.730728,162.519836 182.696655,163.343597 
	C184.300110,163.564987 185.835403,164.280106 187.712357,164.995071 
z"/>
<path fill="#150203" opacity="1.000000" stroke="none" 
	d="
M287.180908,182.238190 
	C288.512390,179.137543 290.192169,177.670181 291.956573,181.207581 
	C294.302307,185.910461 296.136383,190.868530 298.761902,197.066284 
	C292.970734,197.066284 288.156281,197.160812 283.362305,196.891220 
	C282.968323,196.869080 282.120117,194.165054 282.503296,193.061447 
	C283.749146,189.473694 285.469238,186.050644 287.180908,182.238190 
z"/>
<path fill="#A31116" opacity="1.000000" stroke="none" 
	d="
M148.480438,223.369171 
	C148.508835,223.489105 148.470825,223.460342 148.453049,223.481415 
	C148.440857,223.418076 148.446442,223.333649 148.480438,223.369171 
z"/>
</svg>